M48
; DRILL file {KiCad 8.0.7} date 2025-01-19T22:37:32+0100
; FORMAT={-:-/ absolute / inch / decimal}
; #@! TF.CreationDate,2025-01-19T22:37:32+01:00
; #@! TF.GenerationSoftware,Kicad,Pcbnew,8.0.7
; #@! TF.FileFunction,Plated,1,2,PTH
FMAT,2
INCH
; #@! TA.AperFunction,Plated,PTH,ViaDrill
T1C0.0118
; #@! TA.AperFunction,Plated,PTH,ComponentDrill
T2C0.0236
; #@! TA.AperFunction,Plated,PTH,ComponentDrill
T3C0.0295
; #@! TA.AperFunction,Plated,PTH,ComponentDrill
T4C0.0362
; #@! TA.AperFunction,Plated,PTH,ComponentDrill
T5C0.0906
%
G90
G05
T1
X0.2146Y-0.4006
X0.2254Y-0.2982
X0.3868Y-0.6171
X0.4016Y-0.5591
X0.4055Y-0.1053
X0.4231Y-0.2904
X0.4429Y-0.8435
X0.4793Y-0.2057
X0.7402Y-0.0394
T3
X0.5433Y-1.0787
X0.622Y-1.0787
T4
X0.4528Y-0.4724
X0.4528Y-0.5709
X0.4528Y-0.6496
X0.4528Y-0.748
T5
X0.5594Y-0.3516
X0.5594Y-0.8689
T2
G00X0.1398Y-0.4402
M15
G01X0.1161Y-0.4402
M16
G05
G00X0.1398Y-0.7803
M15
G01X0.1161Y-0.7803
M16
G05
G00X0.3142Y-0.4402
M15
G01X0.2709Y-0.4402
M16
G05
G00X0.3142Y-0.7803
M15
G01X0.2709Y-0.7803
M16
G05
M30
