%TF.GenerationSoftware,KiCad,Pcbnew,8.0.7*%
%TF.CreationDate,2025-01-19T22:37:32+01:00*%
%TF.ProjectId,USBPowerCut2,55534250-6f77-4657-9243-7574322e6b69,rev?*%
%TF.SameCoordinates,Original*%
%TF.FileFunction,Copper,L2,Bot*%
%TF.FilePolarity,Positive*%
%FSLAX46Y46*%
G04 Gerber Fmt 4.6, Leading zero omitted, Abs format (unit mm)*
G04 Created by KiCad (PCBNEW 8.0.7) date 2025-01-19 22:37:32*
%MOMM*%
%LPD*%
G01*
G04 APERTURE LIST*
G04 Aperture macros list*
%AMRoundRect*
0 Rectangle with rounded corners*
0 $1 Rounding radius*
0 $2 $3 $4 $5 $6 $7 $8 $9 X,Y pos of 4 corners*
0 Add a 4 corners polygon primitive as box body*
4,1,4,$2,$3,$4,$5,$6,$7,$8,$9,$2,$3,0*
0 Add four circle primitives for the rounded corners*
1,1,$1+$1,$2,$3*
1,1,$1+$1,$4,$5*
1,1,$1+$1,$6,$7*
1,1,$1+$1,$8,$9*
0 Add four rect primitives between the rounded corners*
20,1,$1+$1,$2,$3,$4,$5,0*
20,1,$1+$1,$4,$5,$6,$7,0*
20,1,$1+$1,$6,$7,$8,$9,0*
20,1,$1+$1,$8,$9,$2,$3,0*%
G04 Aperture macros list end*
%TA.AperFunction,ComponentPad*%
%ADD10R,1.524000X1.524000*%
%TD*%
%TA.AperFunction,ComponentPad*%
%ADD11C,1.524000*%
%TD*%
%TA.AperFunction,ComponentPad*%
%ADD12C,3.500000*%
%TD*%
%TA.AperFunction,ComponentPad*%
%ADD13RoundRect,0.250000X-0.350000X-0.625000X0.350000X-0.625000X0.350000X0.625000X-0.350000X0.625000X0*%
%TD*%
%TA.AperFunction,ComponentPad*%
%ADD14O,1.200000X1.750000*%
%TD*%
%TA.AperFunction,ComponentPad*%
%ADD15O,1.600000X1.000000*%
%TD*%
%TA.AperFunction,ComponentPad*%
%ADD16O,2.100000X1.000000*%
%TD*%
%TA.AperFunction,ViaPad*%
%ADD17C,0.600000*%
%TD*%
%TA.AperFunction,Conductor*%
%ADD18C,0.200000*%
%TD*%
%TA.AperFunction,Conductor*%
%ADD19C,0.508000*%
%TD*%
G04 APERTURE END LIST*
D10*
%TO.P,J3,1,VBUS*%
%TO.N,PWR*%
X11500000Y-19000000D03*
D11*
%TO.P,J3,2,D-*%
%TO.N,/D-*%
X11500000Y-16500000D03*
%TO.P,J3,3,D+*%
%TO.N,/D+*%
X11500000Y-14500000D03*
%TO.P,J3,4,GND*%
%TO.N,GND*%
X11500000Y-12000000D03*
D12*
%TO.P,J3,5,Shield*%
%TO.N,Net-(J3-Shield)*%
X14210000Y-22070000D03*
X14210000Y-8930000D03*
%TD*%
D13*
%TO.P,J2,1,Pin_1*%
%TO.N,GND*%
X13800000Y-27400000D03*
D14*
%TO.P,J2,2,Pin_2*%
%TO.N,Net-(IC1-EN)*%
X15800000Y-27400000D03*
%TD*%
D15*
%TO.P,J1,S1,SHIELD*%
%TO.N,Net-(J1-SHIELD)*%
X3250000Y-19820000D03*
D16*
X7430000Y-19820000D03*
D15*
X3250000Y-11180000D03*
D16*
X7430000Y-11180000D03*
%TD*%
D17*
%TO.N,Net-(J1-CC2)*%
X5450000Y-10175000D03*
X5725000Y-7575000D03*
%TO.N,GND*%
X11250000Y-21425000D03*
X12175000Y-5225000D03*
%TO.N,Net-(IC1-EN)*%
X18800000Y-1000000D03*
%TO.N,PWR*%
X10300000Y-2675000D03*
%TO.N,/D-*%
X9825000Y-15675000D03*
%TO.N,Net-(J1-CC1)*%
X10746000Y-7375000D03*
X10200000Y-14200000D03*
%TD*%
D18*
%TO.N,Net-(J1-CC2)*%
X5725000Y-9900000D02*
X5450000Y-10175000D01*
X5725000Y-7575000D02*
X5725000Y-9900000D01*
D19*
%TO.N,GND*%
X12850000Y-19825000D02*
X11250000Y-21425000D01*
X12850000Y-13350000D02*
X12850000Y-19825000D01*
X11500000Y-12000000D02*
X12850000Y-13350000D01*
%TO.N,Net-(J1-SHIELD)*%
X3250000Y-11180000D02*
X7430000Y-11180000D01*
X7430000Y-19820000D02*
X3250000Y-19820000D01*
X3250000Y-11180000D02*
X3250000Y-19820000D01*
%TO.N,GND*%
X11500000Y-5900000D02*
X12175000Y-5225000D01*
X11500000Y-12000000D02*
X11500000Y-5900000D01*
%TO.N,Net-(J3-Shield)*%
X14210000Y-8930000D02*
X14210000Y-22070000D01*
D18*
%TO.N,Net-(IC1-EN)*%
X18800000Y-24400000D02*
X18800000Y-1000000D01*
X15800000Y-27400000D02*
X18800000Y-24400000D01*
%TO.N,/D-*%
X9825000Y-15675000D02*
X10650000Y-16500000D01*
X10650000Y-16500000D02*
X11500000Y-16500000D01*
%TO.N,Net-(J1-CC1)*%
X10746000Y-7375000D02*
X10746000Y-11054000D01*
X10746000Y-11054000D02*
X10200000Y-11600000D01*
X10200000Y-11600000D02*
X10200000Y-14200000D01*
D19*
%TO.N,PWR*%
X9071000Y-3904000D02*
X10300000Y-2675000D01*
X9071000Y-16571000D02*
X9071000Y-3904000D01*
X11500000Y-19000000D02*
X9071000Y-16571000D01*
%TD*%
M02*
