%TF.GenerationSoftware,KiCad,Pcbnew,8.0.7*%
%TF.CreationDate,2025-01-19T22:37:32+01:00*%
%TF.ProjectId,USBPowerCut2,55534250-6f77-4657-9243-7574322e6b69,rev?*%
%TF.SameCoordinates,Original*%
%TF.FileFunction,Legend,Top*%
%TF.FilePolarity,Positive*%
%FSLAX46Y46*%
G04 Gerber Fmt 4.6, Leading zero omitted, Abs format (unit mm)*
G04 Created by KiCad (PCBNEW 8.0.7) date 2025-01-19 22:37:32*
%MOMM*%
%LPD*%
G01*
G04 APERTURE LIST*
G04 Aperture macros list*
%AMRoundRect*
0 Rectangle with rounded corners*
0 $1 Rounding radius*
0 $2 $3 $4 $5 $6 $7 $8 $9 X,Y pos of 4 corners*
0 Add a 4 corners polygon primitive as box body*
4,1,4,$2,$3,$4,$5,$6,$7,$8,$9,$2,$3,0*
0 Add four circle primitives for the rounded corners*
1,1,$1+$1,$2,$3*
1,1,$1+$1,$4,$5*
1,1,$1+$1,$6,$7*
1,1,$1+$1,$8,$9*
0 Add four rect primitives between the rounded corners*
20,1,$1+$1,$2,$3,$4,$5,0*
20,1,$1+$1,$4,$5,$6,$7,0*
20,1,$1+$1,$6,$7,$8,$9,0*
20,1,$1+$1,$8,$9,$2,$3,0*%
G04 Aperture macros list end*
%ADD10C,0.150000*%
%ADD11C,0.050000*%
%ADD12C,0.254000*%
%ADD13C,0.120000*%
%ADD14C,0.200000*%
%ADD15C,3.200000*%
%ADD16RoundRect,0.200000X0.200000X0.275000X-0.200000X0.275000X-0.200000X-0.275000X0.200000X-0.275000X0*%
%ADD17R,1.524000X1.524000*%
%ADD18C,1.524000*%
%ADD19C,3.500000*%
%ADD20RoundRect,0.250000X-0.350000X-0.625000X0.350000X-0.625000X0.350000X0.625000X-0.350000X0.625000X0*%
%ADD21O,1.200000X1.750000*%
%ADD22RoundRect,0.225000X0.250000X-0.225000X0.250000X0.225000X-0.250000X0.225000X-0.250000X-0.225000X0*%
%ADD23O,1.600000X1.000000*%
%ADD24O,2.100000X1.000000*%
%ADD25R,1.450000X0.600000*%
%ADD26R,1.450000X0.300000*%
%ADD27C,0.650000*%
%ADD28R,1.500000X0.650000*%
%ADD29RoundRect,0.200000X-0.200000X-0.275000X0.200000X-0.275000X0.200000X0.275000X-0.200000X0.275000X0*%
%ADD30RoundRect,0.200000X0.275000X-0.200000X0.275000X0.200000X-0.275000X0.200000X-0.275000X-0.200000X0*%
G04 APERTURE END LIST*
D10*
X489160Y-20718385D02*
X489160Y-21366004D01*
X489160Y-21366004D02*
X527255Y-21442194D01*
X527255Y-21442194D02*
X565350Y-21480290D01*
X565350Y-21480290D02*
X641541Y-21518385D01*
X641541Y-21518385D02*
X793922Y-21518385D01*
X793922Y-21518385D02*
X870112Y-21480290D01*
X870112Y-21480290D02*
X908207Y-21442194D01*
X908207Y-21442194D02*
X946303Y-21366004D01*
X946303Y-21366004D02*
X946303Y-20718385D01*
X1289159Y-21480290D02*
X1403445Y-21518385D01*
X1403445Y-21518385D02*
X1593921Y-21518385D01*
X1593921Y-21518385D02*
X1670112Y-21480290D01*
X1670112Y-21480290D02*
X1708207Y-21442194D01*
X1708207Y-21442194D02*
X1746302Y-21366004D01*
X1746302Y-21366004D02*
X1746302Y-21289813D01*
X1746302Y-21289813D02*
X1708207Y-21213623D01*
X1708207Y-21213623D02*
X1670112Y-21175528D01*
X1670112Y-21175528D02*
X1593921Y-21137432D01*
X1593921Y-21137432D02*
X1441540Y-21099337D01*
X1441540Y-21099337D02*
X1365350Y-21061242D01*
X1365350Y-21061242D02*
X1327255Y-21023147D01*
X1327255Y-21023147D02*
X1289159Y-20946956D01*
X1289159Y-20946956D02*
X1289159Y-20870766D01*
X1289159Y-20870766D02*
X1327255Y-20794575D01*
X1327255Y-20794575D02*
X1365350Y-20756480D01*
X1365350Y-20756480D02*
X1441540Y-20718385D01*
X1441540Y-20718385D02*
X1632017Y-20718385D01*
X1632017Y-20718385D02*
X1746302Y-20756480D01*
X2355826Y-21099337D02*
X2470112Y-21137432D01*
X2470112Y-21137432D02*
X2508207Y-21175528D01*
X2508207Y-21175528D02*
X2546303Y-21251718D01*
X2546303Y-21251718D02*
X2546303Y-21366004D01*
X2546303Y-21366004D02*
X2508207Y-21442194D01*
X2508207Y-21442194D02*
X2470112Y-21480290D01*
X2470112Y-21480290D02*
X2393922Y-21518385D01*
X2393922Y-21518385D02*
X2089160Y-21518385D01*
X2089160Y-21518385D02*
X2089160Y-20718385D01*
X2089160Y-20718385D02*
X2355826Y-20718385D01*
X2355826Y-20718385D02*
X2432017Y-20756480D01*
X2432017Y-20756480D02*
X2470112Y-20794575D01*
X2470112Y-20794575D02*
X2508207Y-20870766D01*
X2508207Y-20870766D02*
X2508207Y-20946956D01*
X2508207Y-20946956D02*
X2470112Y-21023147D01*
X2470112Y-21023147D02*
X2432017Y-21061242D01*
X2432017Y-21061242D02*
X2355826Y-21099337D01*
X2355826Y-21099337D02*
X2089160Y-21099337D01*
X2889160Y-21518385D02*
X2889160Y-20718385D01*
X2889160Y-20718385D02*
X3193922Y-20718385D01*
X3193922Y-20718385D02*
X3270112Y-20756480D01*
X3270112Y-20756480D02*
X3308207Y-20794575D01*
X3308207Y-20794575D02*
X3346303Y-20870766D01*
X3346303Y-20870766D02*
X3346303Y-20985051D01*
X3346303Y-20985051D02*
X3308207Y-21061242D01*
X3308207Y-21061242D02*
X3270112Y-21099337D01*
X3270112Y-21099337D02*
X3193922Y-21137432D01*
X3193922Y-21137432D02*
X2889160Y-21137432D01*
X3803445Y-21518385D02*
X3727255Y-21480290D01*
X3727255Y-21480290D02*
X3689160Y-21442194D01*
X3689160Y-21442194D02*
X3651064Y-21366004D01*
X3651064Y-21366004D02*
X3651064Y-21137432D01*
X3651064Y-21137432D02*
X3689160Y-21061242D01*
X3689160Y-21061242D02*
X3727255Y-21023147D01*
X3727255Y-21023147D02*
X3803445Y-20985051D01*
X3803445Y-20985051D02*
X3917731Y-20985051D01*
X3917731Y-20985051D02*
X3993922Y-21023147D01*
X3993922Y-21023147D02*
X4032017Y-21061242D01*
X4032017Y-21061242D02*
X4070112Y-21137432D01*
X4070112Y-21137432D02*
X4070112Y-21366004D01*
X4070112Y-21366004D02*
X4032017Y-21442194D01*
X4032017Y-21442194D02*
X3993922Y-21480290D01*
X3993922Y-21480290D02*
X3917731Y-21518385D01*
X3917731Y-21518385D02*
X3803445Y-21518385D01*
X4336779Y-20985051D02*
X4489160Y-21518385D01*
X4489160Y-21518385D02*
X4641541Y-21137432D01*
X4641541Y-21137432D02*
X4793922Y-21518385D01*
X4793922Y-21518385D02*
X4946303Y-20985051D01*
X5555827Y-21480290D02*
X5479636Y-21518385D01*
X5479636Y-21518385D02*
X5327255Y-21518385D01*
X5327255Y-21518385D02*
X5251065Y-21480290D01*
X5251065Y-21480290D02*
X5212969Y-21404099D01*
X5212969Y-21404099D02*
X5212969Y-21099337D01*
X5212969Y-21099337D02*
X5251065Y-21023147D01*
X5251065Y-21023147D02*
X5327255Y-20985051D01*
X5327255Y-20985051D02*
X5479636Y-20985051D01*
X5479636Y-20985051D02*
X5555827Y-21023147D01*
X5555827Y-21023147D02*
X5593922Y-21099337D01*
X5593922Y-21099337D02*
X5593922Y-21175528D01*
X5593922Y-21175528D02*
X5212969Y-21251718D01*
X5936779Y-21518385D02*
X5936779Y-20985051D01*
X5936779Y-21137432D02*
X5974874Y-21061242D01*
X5974874Y-21061242D02*
X6012969Y-21023147D01*
X6012969Y-21023147D02*
X6089160Y-20985051D01*
X6089160Y-20985051D02*
X6165350Y-20985051D01*
X6889160Y-21442194D02*
X6851064Y-21480290D01*
X6851064Y-21480290D02*
X6736779Y-21518385D01*
X6736779Y-21518385D02*
X6660588Y-21518385D01*
X6660588Y-21518385D02*
X6546302Y-21480290D01*
X6546302Y-21480290D02*
X6470112Y-21404099D01*
X6470112Y-21404099D02*
X6432017Y-21327909D01*
X6432017Y-21327909D02*
X6393921Y-21175528D01*
X6393921Y-21175528D02*
X6393921Y-21061242D01*
X6393921Y-21061242D02*
X6432017Y-20908861D01*
X6432017Y-20908861D02*
X6470112Y-20832670D01*
X6470112Y-20832670D02*
X6546302Y-20756480D01*
X6546302Y-20756480D02*
X6660588Y-20718385D01*
X6660588Y-20718385D02*
X6736779Y-20718385D01*
X6736779Y-20718385D02*
X6851064Y-20756480D01*
X6851064Y-20756480D02*
X6889160Y-20794575D01*
X7574874Y-20985051D02*
X7574874Y-21518385D01*
X7232017Y-20985051D02*
X7232017Y-21404099D01*
X7232017Y-21404099D02*
X7270112Y-21480290D01*
X7270112Y-21480290D02*
X7346302Y-21518385D01*
X7346302Y-21518385D02*
X7460588Y-21518385D01*
X7460588Y-21518385D02*
X7536779Y-21480290D01*
X7536779Y-21480290D02*
X7574874Y-21442194D01*
X7841541Y-20985051D02*
X8146303Y-20985051D01*
X7955827Y-20718385D02*
X7955827Y-21404099D01*
X7955827Y-21404099D02*
X7993922Y-21480290D01*
X7993922Y-21480290D02*
X8070112Y-21518385D01*
X8070112Y-21518385D02*
X8146303Y-21518385D01*
X946303Y-22806340D02*
X679636Y-22425387D01*
X489160Y-22806340D02*
X489160Y-22006340D01*
X489160Y-22006340D02*
X793922Y-22006340D01*
X793922Y-22006340D02*
X870112Y-22044435D01*
X870112Y-22044435D02*
X908207Y-22082530D01*
X908207Y-22082530D02*
X946303Y-22158721D01*
X946303Y-22158721D02*
X946303Y-22273006D01*
X946303Y-22273006D02*
X908207Y-22349197D01*
X908207Y-22349197D02*
X870112Y-22387292D01*
X870112Y-22387292D02*
X793922Y-22425387D01*
X793922Y-22425387D02*
X489160Y-22425387D01*
X1593922Y-22768245D02*
X1517731Y-22806340D01*
X1517731Y-22806340D02*
X1365350Y-22806340D01*
X1365350Y-22806340D02*
X1289160Y-22768245D01*
X1289160Y-22768245D02*
X1251064Y-22692054D01*
X1251064Y-22692054D02*
X1251064Y-22387292D01*
X1251064Y-22387292D02*
X1289160Y-22311102D01*
X1289160Y-22311102D02*
X1365350Y-22273006D01*
X1365350Y-22273006D02*
X1517731Y-22273006D01*
X1517731Y-22273006D02*
X1593922Y-22311102D01*
X1593922Y-22311102D02*
X1632017Y-22387292D01*
X1632017Y-22387292D02*
X1632017Y-22463483D01*
X1632017Y-22463483D02*
X1251064Y-22539673D01*
X1898683Y-22273006D02*
X2089159Y-22806340D01*
X2089159Y-22806340D02*
X2279636Y-22273006D01*
X3155826Y-22082530D02*
X3193922Y-22044435D01*
X3193922Y-22044435D02*
X3270112Y-22006340D01*
X3270112Y-22006340D02*
X3460588Y-22006340D01*
X3460588Y-22006340D02*
X3536779Y-22044435D01*
X3536779Y-22044435D02*
X3574874Y-22082530D01*
X3574874Y-22082530D02*
X3612969Y-22158721D01*
X3612969Y-22158721D02*
X3612969Y-22234911D01*
X3612969Y-22234911D02*
X3574874Y-22349197D01*
X3574874Y-22349197D02*
X3117731Y-22806340D01*
X3117731Y-22806340D02*
X3612969Y-22806340D01*
X489160Y-24094295D02*
X489160Y-23294295D01*
X489160Y-23294295D02*
X679636Y-23294295D01*
X679636Y-23294295D02*
X793922Y-23332390D01*
X793922Y-23332390D02*
X870112Y-23408580D01*
X870112Y-23408580D02*
X908207Y-23484771D01*
X908207Y-23484771D02*
X946303Y-23637152D01*
X946303Y-23637152D02*
X946303Y-23751438D01*
X946303Y-23751438D02*
X908207Y-23903819D01*
X908207Y-23903819D02*
X870112Y-23980009D01*
X870112Y-23980009D02*
X793922Y-24056200D01*
X793922Y-24056200D02*
X679636Y-24094295D01*
X679636Y-24094295D02*
X489160Y-24094295D01*
X1289160Y-24094295D02*
X1289160Y-23560961D01*
X1289160Y-23713342D02*
X1327255Y-23637152D01*
X1327255Y-23637152D02*
X1365350Y-23599057D01*
X1365350Y-23599057D02*
X1441541Y-23560961D01*
X1441541Y-23560961D02*
X1517731Y-23560961D01*
X2127255Y-24094295D02*
X2127255Y-23675247D01*
X2127255Y-23675247D02*
X2089160Y-23599057D01*
X2089160Y-23599057D02*
X2012969Y-23560961D01*
X2012969Y-23560961D02*
X1860588Y-23560961D01*
X1860588Y-23560961D02*
X1784398Y-23599057D01*
X2127255Y-24056200D02*
X2051064Y-24094295D01*
X2051064Y-24094295D02*
X1860588Y-24094295D01*
X1860588Y-24094295D02*
X1784398Y-24056200D01*
X1784398Y-24056200D02*
X1746302Y-23980009D01*
X1746302Y-23980009D02*
X1746302Y-23903819D01*
X1746302Y-23903819D02*
X1784398Y-23827628D01*
X1784398Y-23827628D02*
X1860588Y-23789533D01*
X1860588Y-23789533D02*
X2051064Y-23789533D01*
X2051064Y-23789533D02*
X2127255Y-23751438D01*
X2851065Y-23560961D02*
X2851065Y-24208580D01*
X2851065Y-24208580D02*
X2812970Y-24284771D01*
X2812970Y-24284771D02*
X2774874Y-24322866D01*
X2774874Y-24322866D02*
X2698684Y-24360961D01*
X2698684Y-24360961D02*
X2584398Y-24360961D01*
X2584398Y-24360961D02*
X2508208Y-24322866D01*
X2851065Y-24056200D02*
X2774874Y-24094295D01*
X2774874Y-24094295D02*
X2622493Y-24094295D01*
X2622493Y-24094295D02*
X2546303Y-24056200D01*
X2546303Y-24056200D02*
X2508208Y-24018104D01*
X2508208Y-24018104D02*
X2470112Y-23941914D01*
X2470112Y-23941914D02*
X2470112Y-23713342D01*
X2470112Y-23713342D02*
X2508208Y-23637152D01*
X2508208Y-23637152D02*
X2546303Y-23599057D01*
X2546303Y-23599057D02*
X2622493Y-23560961D01*
X2622493Y-23560961D02*
X2774874Y-23560961D01*
X2774874Y-23560961D02*
X2851065Y-23599057D01*
X3346303Y-24094295D02*
X3270113Y-24056200D01*
X3270113Y-24056200D02*
X3232018Y-24018104D01*
X3232018Y-24018104D02*
X3193922Y-23941914D01*
X3193922Y-23941914D02*
X3193922Y-23713342D01*
X3193922Y-23713342D02*
X3232018Y-23637152D01*
X3232018Y-23637152D02*
X3270113Y-23599057D01*
X3270113Y-23599057D02*
X3346303Y-23560961D01*
X3346303Y-23560961D02*
X3460589Y-23560961D01*
X3460589Y-23560961D02*
X3536780Y-23599057D01*
X3536780Y-23599057D02*
X3574875Y-23637152D01*
X3574875Y-23637152D02*
X3612970Y-23713342D01*
X3612970Y-23713342D02*
X3612970Y-23941914D01*
X3612970Y-23941914D02*
X3574875Y-24018104D01*
X3574875Y-24018104D02*
X3536780Y-24056200D01*
X3536780Y-24056200D02*
X3460589Y-24094295D01*
X3460589Y-24094295D02*
X3346303Y-24094295D01*
X3955828Y-23560961D02*
X3955828Y-24094295D01*
X3955828Y-23637152D02*
X3993923Y-23599057D01*
X3993923Y-23599057D02*
X4070113Y-23560961D01*
X4070113Y-23560961D02*
X4184399Y-23560961D01*
X4184399Y-23560961D02*
X4260590Y-23599057D01*
X4260590Y-23599057D02*
X4298685Y-23675247D01*
X4298685Y-23675247D02*
X4298685Y-24094295D01*
X4679638Y-24094295D02*
X4679638Y-23294295D01*
X4755828Y-23789533D02*
X4984400Y-24094295D01*
X4984400Y-23560961D02*
X4679638Y-23865723D01*
X5327257Y-24094295D02*
X5327257Y-23560961D01*
X5327257Y-23294295D02*
X5289161Y-23332390D01*
X5289161Y-23332390D02*
X5327257Y-23370485D01*
X5327257Y-23370485D02*
X5365352Y-23332390D01*
X5365352Y-23332390D02*
X5327257Y-23294295D01*
X5327257Y-23294295D02*
X5327257Y-23370485D01*
X5593923Y-23560961D02*
X5898685Y-23560961D01*
X5708209Y-23294295D02*
X5708209Y-23980009D01*
X5708209Y-23980009D02*
X5746304Y-24056200D01*
X5746304Y-24056200D02*
X5822494Y-24094295D01*
X5822494Y-24094295D02*
X5898685Y-24094295D01*
X6051066Y-23560961D02*
X6355828Y-23560961D01*
X6165352Y-23294295D02*
X6165352Y-23980009D01*
X6165352Y-23980009D02*
X6203447Y-24056200D01*
X6203447Y-24056200D02*
X6279637Y-24094295D01*
X6279637Y-24094295D02*
X6355828Y-24094295D01*
X6546304Y-23560961D02*
X6736780Y-24094295D01*
X6927257Y-23560961D02*
X6736780Y-24094295D01*
X6736780Y-24094295D02*
X6660590Y-24284771D01*
X6660590Y-24284771D02*
X6622495Y-24322866D01*
X6622495Y-24322866D02*
X6546304Y-24360961D01*
X7803447Y-23370485D02*
X7841543Y-23332390D01*
X7841543Y-23332390D02*
X7917733Y-23294295D01*
X7917733Y-23294295D02*
X8108209Y-23294295D01*
X8108209Y-23294295D02*
X8184400Y-23332390D01*
X8184400Y-23332390D02*
X8222495Y-23370485D01*
X8222495Y-23370485D02*
X8260590Y-23446676D01*
X8260590Y-23446676D02*
X8260590Y-23522866D01*
X8260590Y-23522866D02*
X8222495Y-23637152D01*
X8222495Y-23637152D02*
X7765352Y-24094295D01*
X7765352Y-24094295D02*
X8260590Y-24094295D01*
X8755829Y-23294295D02*
X8832019Y-23294295D01*
X8832019Y-23294295D02*
X8908210Y-23332390D01*
X8908210Y-23332390D02*
X8946305Y-23370485D01*
X8946305Y-23370485D02*
X8984400Y-23446676D01*
X8984400Y-23446676D02*
X9022495Y-23599057D01*
X9022495Y-23599057D02*
X9022495Y-23789533D01*
X9022495Y-23789533D02*
X8984400Y-23941914D01*
X8984400Y-23941914D02*
X8946305Y-24018104D01*
X8946305Y-24018104D02*
X8908210Y-24056200D01*
X8908210Y-24056200D02*
X8832019Y-24094295D01*
X8832019Y-24094295D02*
X8755829Y-24094295D01*
X8755829Y-24094295D02*
X8679638Y-24056200D01*
X8679638Y-24056200D02*
X8641543Y-24018104D01*
X8641543Y-24018104D02*
X8603448Y-23941914D01*
X8603448Y-23941914D02*
X8565352Y-23789533D01*
X8565352Y-23789533D02*
X8565352Y-23599057D01*
X8565352Y-23599057D02*
X8603448Y-23446676D01*
X8603448Y-23446676D02*
X8641543Y-23370485D01*
X8641543Y-23370485D02*
X8679638Y-23332390D01*
X8679638Y-23332390D02*
X8755829Y-23294295D01*
X9327257Y-23370485D02*
X9365353Y-23332390D01*
X9365353Y-23332390D02*
X9441543Y-23294295D01*
X9441543Y-23294295D02*
X9632019Y-23294295D01*
X9632019Y-23294295D02*
X9708210Y-23332390D01*
X9708210Y-23332390D02*
X9746305Y-23370485D01*
X9746305Y-23370485D02*
X9784400Y-23446676D01*
X9784400Y-23446676D02*
X9784400Y-23522866D01*
X9784400Y-23522866D02*
X9746305Y-23637152D01*
X9746305Y-23637152D02*
X9289162Y-24094295D01*
X9289162Y-24094295D02*
X9784400Y-24094295D01*
X10508210Y-23294295D02*
X10127258Y-23294295D01*
X10127258Y-23294295D02*
X10089162Y-23675247D01*
X10089162Y-23675247D02*
X10127258Y-23637152D01*
X10127258Y-23637152D02*
X10203448Y-23599057D01*
X10203448Y-23599057D02*
X10393924Y-23599057D01*
X10393924Y-23599057D02*
X10470115Y-23637152D01*
X10470115Y-23637152D02*
X10508210Y-23675247D01*
X10508210Y-23675247D02*
X10546305Y-23751438D01*
X10546305Y-23751438D02*
X10546305Y-23941914D01*
X10546305Y-23941914D02*
X10508210Y-24018104D01*
X10508210Y-24018104D02*
X10470115Y-24056200D01*
X10470115Y-24056200D02*
X10393924Y-24094295D01*
X10393924Y-24094295D02*
X10203448Y-24094295D01*
X10203448Y-24094295D02*
X10127258Y-24056200D01*
X10127258Y-24056200D02*
X10089162Y-24018104D01*
X7432494Y-29361904D02*
X7384875Y-29457142D01*
X7384875Y-29457142D02*
X7384875Y-29599999D01*
X7384875Y-29599999D02*
X7432494Y-29742856D01*
X7432494Y-29742856D02*
X7527732Y-29838094D01*
X7527732Y-29838094D02*
X7622970Y-29885713D01*
X7622970Y-29885713D02*
X7813446Y-29933332D01*
X7813446Y-29933332D02*
X7956303Y-29933332D01*
X7956303Y-29933332D02*
X8146779Y-29885713D01*
X8146779Y-29885713D02*
X8242017Y-29838094D01*
X8242017Y-29838094D02*
X8337256Y-29742856D01*
X8337256Y-29742856D02*
X8384875Y-29599999D01*
X8384875Y-29599999D02*
X8384875Y-29504761D01*
X8384875Y-29504761D02*
X8337256Y-29361904D01*
X8337256Y-29361904D02*
X8289636Y-29314285D01*
X8289636Y-29314285D02*
X7956303Y-29314285D01*
X7956303Y-29314285D02*
X7956303Y-29504761D01*
X8384875Y-28885713D02*
X7384875Y-28885713D01*
X7384875Y-28885713D02*
X8384875Y-28314285D01*
X8384875Y-28314285D02*
X7384875Y-28314285D01*
X8384875Y-27838094D02*
X7384875Y-27838094D01*
X7384875Y-27838094D02*
X7384875Y-27599999D01*
X7384875Y-27599999D02*
X7432494Y-27457142D01*
X7432494Y-27457142D02*
X7527732Y-27361904D01*
X7527732Y-27361904D02*
X7622970Y-27314285D01*
X7622970Y-27314285D02*
X7813446Y-27266666D01*
X7813446Y-27266666D02*
X7956303Y-27266666D01*
X7956303Y-27266666D02*
X8146779Y-27314285D01*
X8146779Y-27314285D02*
X8242017Y-27361904D01*
X8242017Y-27361904D02*
X8337256Y-27457142D01*
X8337256Y-27457142D02*
X8384875Y-27599999D01*
X8384875Y-27599999D02*
X8384875Y-27838094D01*
X9899580Y-29076190D02*
X9947200Y-29123809D01*
X9947200Y-29123809D02*
X9994819Y-29266666D01*
X9994819Y-29266666D02*
X9994819Y-29361904D01*
X9994819Y-29361904D02*
X9947200Y-29504761D01*
X9947200Y-29504761D02*
X9851961Y-29599999D01*
X9851961Y-29599999D02*
X9756723Y-29647618D01*
X9756723Y-29647618D02*
X9566247Y-29695237D01*
X9566247Y-29695237D02*
X9423390Y-29695237D01*
X9423390Y-29695237D02*
X9232914Y-29647618D01*
X9232914Y-29647618D02*
X9137676Y-29599999D01*
X9137676Y-29599999D02*
X9042438Y-29504761D01*
X9042438Y-29504761D02*
X8994819Y-29361904D01*
X8994819Y-29361904D02*
X8994819Y-29266666D01*
X8994819Y-29266666D02*
X9042438Y-29123809D01*
X9042438Y-29123809D02*
X9090057Y-29076190D01*
X8994819Y-28790475D02*
X8994819Y-28219047D01*
X9994819Y-28504761D02*
X8994819Y-28504761D01*
X9994819Y-27409523D02*
X9994819Y-27885713D01*
X9994819Y-27885713D02*
X8994819Y-27885713D01*
D11*
X8700000Y-27000000D02*
X10300000Y-27000000D01*
X10300000Y-30200000D01*
X8700000Y-30200000D01*
X8700000Y-27000000D01*
X7100000Y-27000000D02*
X8700000Y-27000000D01*
X8700000Y-30200000D01*
X7100000Y-30200000D01*
X7100000Y-27000000D01*
D10*
X5733333Y-7754819D02*
X5400000Y-7278628D01*
X5161905Y-7754819D02*
X5161905Y-6754819D01*
X5161905Y-6754819D02*
X5542857Y-6754819D01*
X5542857Y-6754819D02*
X5638095Y-6802438D01*
X5638095Y-6802438D02*
X5685714Y-6850057D01*
X5685714Y-6850057D02*
X5733333Y-6945295D01*
X5733333Y-6945295D02*
X5733333Y-7088152D01*
X5733333Y-7088152D02*
X5685714Y-7183390D01*
X5685714Y-7183390D02*
X5638095Y-7231009D01*
X5638095Y-7231009D02*
X5542857Y-7278628D01*
X5542857Y-7278628D02*
X5161905Y-7278628D01*
X6066667Y-6754819D02*
X6685714Y-6754819D01*
X6685714Y-6754819D02*
X6352381Y-7135771D01*
X6352381Y-7135771D02*
X6495238Y-7135771D01*
X6495238Y-7135771D02*
X6590476Y-7183390D01*
X6590476Y-7183390D02*
X6638095Y-7231009D01*
X6638095Y-7231009D02*
X6685714Y-7326247D01*
X6685714Y-7326247D02*
X6685714Y-7564342D01*
X6685714Y-7564342D02*
X6638095Y-7659580D01*
X6638095Y-7659580D02*
X6590476Y-7707200D01*
X6590476Y-7707200D02*
X6495238Y-7754819D01*
X6495238Y-7754819D02*
X6209524Y-7754819D01*
X6209524Y-7754819D02*
X6114286Y-7707200D01*
X6114286Y-7707200D02*
X6066667Y-7659580D01*
X23566666Y-23229819D02*
X23566666Y-23944104D01*
X23566666Y-23944104D02*
X23519047Y-24086961D01*
X23519047Y-24086961D02*
X23423809Y-24182200D01*
X23423809Y-24182200D02*
X23280952Y-24229819D01*
X23280952Y-24229819D02*
X23185714Y-24229819D01*
X23947619Y-23229819D02*
X24566666Y-23229819D01*
X24566666Y-23229819D02*
X24233333Y-23610771D01*
X24233333Y-23610771D02*
X24376190Y-23610771D01*
X24376190Y-23610771D02*
X24471428Y-23658390D01*
X24471428Y-23658390D02*
X24519047Y-23706009D01*
X24519047Y-23706009D02*
X24566666Y-23801247D01*
X24566666Y-23801247D02*
X24566666Y-24039342D01*
X24566666Y-24039342D02*
X24519047Y-24134580D01*
X24519047Y-24134580D02*
X24471428Y-24182200D01*
X24471428Y-24182200D02*
X24376190Y-24229819D01*
X24376190Y-24229819D02*
X24090476Y-24229819D01*
X24090476Y-24229819D02*
X23995238Y-24182200D01*
X23995238Y-24182200D02*
X23947619Y-24134580D01*
X5758333Y-9454819D02*
X5425000Y-8978628D01*
X5186905Y-9454819D02*
X5186905Y-8454819D01*
X5186905Y-8454819D02*
X5567857Y-8454819D01*
X5567857Y-8454819D02*
X5663095Y-8502438D01*
X5663095Y-8502438D02*
X5710714Y-8550057D01*
X5710714Y-8550057D02*
X5758333Y-8645295D01*
X5758333Y-8645295D02*
X5758333Y-8788152D01*
X5758333Y-8788152D02*
X5710714Y-8883390D01*
X5710714Y-8883390D02*
X5663095Y-8931009D01*
X5663095Y-8931009D02*
X5567857Y-8978628D01*
X5567857Y-8978628D02*
X5186905Y-8978628D01*
X6139286Y-8550057D02*
X6186905Y-8502438D01*
X6186905Y-8502438D02*
X6282143Y-8454819D01*
X6282143Y-8454819D02*
X6520238Y-8454819D01*
X6520238Y-8454819D02*
X6615476Y-8502438D01*
X6615476Y-8502438D02*
X6663095Y-8550057D01*
X6663095Y-8550057D02*
X6710714Y-8645295D01*
X6710714Y-8645295D02*
X6710714Y-8740533D01*
X6710714Y-8740533D02*
X6663095Y-8883390D01*
X6663095Y-8883390D02*
X6091667Y-9454819D01*
X6091667Y-9454819D02*
X6710714Y-9454819D01*
X10054819Y-26283333D02*
X10769104Y-26283333D01*
X10769104Y-26283333D02*
X10911961Y-26330952D01*
X10911961Y-26330952D02*
X11007200Y-26426190D01*
X11007200Y-26426190D02*
X11054819Y-26569047D01*
X11054819Y-26569047D02*
X11054819Y-26664285D01*
X10150057Y-25854761D02*
X10102438Y-25807142D01*
X10102438Y-25807142D02*
X10054819Y-25711904D01*
X10054819Y-25711904D02*
X10054819Y-25473809D01*
X10054819Y-25473809D02*
X10102438Y-25378571D01*
X10102438Y-25378571D02*
X10150057Y-25330952D01*
X10150057Y-25330952D02*
X10245295Y-25283333D01*
X10245295Y-25283333D02*
X10340533Y-25283333D01*
X10340533Y-25283333D02*
X10483390Y-25330952D01*
X10483390Y-25330952D02*
X11054819Y-25902380D01*
X11054819Y-25902380D02*
X11054819Y-25283333D01*
X16679580Y-7326666D02*
X16727200Y-7374285D01*
X16727200Y-7374285D02*
X16774819Y-7517142D01*
X16774819Y-7517142D02*
X16774819Y-7612380D01*
X16774819Y-7612380D02*
X16727200Y-7755237D01*
X16727200Y-7755237D02*
X16631961Y-7850475D01*
X16631961Y-7850475D02*
X16536723Y-7898094D01*
X16536723Y-7898094D02*
X16346247Y-7945713D01*
X16346247Y-7945713D02*
X16203390Y-7945713D01*
X16203390Y-7945713D02*
X16012914Y-7898094D01*
X16012914Y-7898094D02*
X15917676Y-7850475D01*
X15917676Y-7850475D02*
X15822438Y-7755237D01*
X15822438Y-7755237D02*
X15774819Y-7612380D01*
X15774819Y-7612380D02*
X15774819Y-7517142D01*
X15774819Y-7517142D02*
X15822438Y-7374285D01*
X15822438Y-7374285D02*
X15870057Y-7326666D01*
X15870057Y-6945713D02*
X15822438Y-6898094D01*
X15822438Y-6898094D02*
X15774819Y-6802856D01*
X15774819Y-6802856D02*
X15774819Y-6564761D01*
X15774819Y-6564761D02*
X15822438Y-6469523D01*
X15822438Y-6469523D02*
X15870057Y-6421904D01*
X15870057Y-6421904D02*
X15965295Y-6374285D01*
X15965295Y-6374285D02*
X16060533Y-6374285D01*
X16060533Y-6374285D02*
X16203390Y-6421904D01*
X16203390Y-6421904D02*
X16774819Y-6993332D01*
X16774819Y-6993332D02*
X16774819Y-6374285D01*
X808333Y-7879819D02*
X475000Y-7403628D01*
X236905Y-7879819D02*
X236905Y-6879819D01*
X236905Y-6879819D02*
X617857Y-6879819D01*
X617857Y-6879819D02*
X713095Y-6927438D01*
X713095Y-6927438D02*
X760714Y-6975057D01*
X760714Y-6975057D02*
X808333Y-7070295D01*
X808333Y-7070295D02*
X808333Y-7213152D01*
X808333Y-7213152D02*
X760714Y-7308390D01*
X760714Y-7308390D02*
X713095Y-7356009D01*
X713095Y-7356009D02*
X617857Y-7403628D01*
X617857Y-7403628D02*
X236905Y-7403628D01*
X1713095Y-6879819D02*
X1236905Y-6879819D01*
X1236905Y-6879819D02*
X1189286Y-7356009D01*
X1189286Y-7356009D02*
X1236905Y-7308390D01*
X1236905Y-7308390D02*
X1332143Y-7260771D01*
X1332143Y-7260771D02*
X1570238Y-7260771D01*
X1570238Y-7260771D02*
X1665476Y-7308390D01*
X1665476Y-7308390D02*
X1713095Y-7356009D01*
X1713095Y-7356009D02*
X1760714Y-7451247D01*
X1760714Y-7451247D02*
X1760714Y-7689342D01*
X1760714Y-7689342D02*
X1713095Y-7784580D01*
X1713095Y-7784580D02*
X1665476Y-7832200D01*
X1665476Y-7832200D02*
X1570238Y-7879819D01*
X1570238Y-7879819D02*
X1332143Y-7879819D01*
X1332143Y-7879819D02*
X1236905Y-7832200D01*
X1236905Y-7832200D02*
X1189286Y-7784580D01*
X18079580Y-7206666D02*
X18127200Y-7254285D01*
X18127200Y-7254285D02*
X18174819Y-7397142D01*
X18174819Y-7397142D02*
X18174819Y-7492380D01*
X18174819Y-7492380D02*
X18127200Y-7635237D01*
X18127200Y-7635237D02*
X18031961Y-7730475D01*
X18031961Y-7730475D02*
X17936723Y-7778094D01*
X17936723Y-7778094D02*
X17746247Y-7825713D01*
X17746247Y-7825713D02*
X17603390Y-7825713D01*
X17603390Y-7825713D02*
X17412914Y-7778094D01*
X17412914Y-7778094D02*
X17317676Y-7730475D01*
X17317676Y-7730475D02*
X17222438Y-7635237D01*
X17222438Y-7635237D02*
X17174819Y-7492380D01*
X17174819Y-7492380D02*
X17174819Y-7397142D01*
X17174819Y-7397142D02*
X17222438Y-7254285D01*
X17222438Y-7254285D02*
X17270057Y-7206666D01*
X18174819Y-6254285D02*
X18174819Y-6825713D01*
X18174819Y-6539999D02*
X17174819Y-6539999D01*
X17174819Y-6539999D02*
X17317676Y-6635237D01*
X17317676Y-6635237D02*
X17412914Y-6730475D01*
X17412914Y-6730475D02*
X17460533Y-6825713D01*
X8779819Y-20683333D02*
X9494104Y-20683333D01*
X9494104Y-20683333D02*
X9636961Y-20730952D01*
X9636961Y-20730952D02*
X9732200Y-20826190D01*
X9732200Y-20826190D02*
X9779819Y-20969047D01*
X9779819Y-20969047D02*
X9779819Y-21064285D01*
X9779819Y-19683333D02*
X9779819Y-20254761D01*
X9779819Y-19969047D02*
X8779819Y-19969047D01*
X8779819Y-19969047D02*
X8922676Y-20064285D01*
X8922676Y-20064285D02*
X9017914Y-20159523D01*
X9017914Y-20159523D02*
X9065533Y-20254761D01*
D12*
X10310237Y-7374318D02*
X10310237Y-6104318D01*
X11640714Y-7253365D02*
X11580238Y-7313842D01*
X11580238Y-7313842D02*
X11398809Y-7374318D01*
X11398809Y-7374318D02*
X11277857Y-7374318D01*
X11277857Y-7374318D02*
X11096428Y-7313842D01*
X11096428Y-7313842D02*
X10975476Y-7192889D01*
X10975476Y-7192889D02*
X10914999Y-7071937D01*
X10914999Y-7071937D02*
X10854523Y-6830032D01*
X10854523Y-6830032D02*
X10854523Y-6648603D01*
X10854523Y-6648603D02*
X10914999Y-6406699D01*
X10914999Y-6406699D02*
X10975476Y-6285746D01*
X10975476Y-6285746D02*
X11096428Y-6164794D01*
X11096428Y-6164794D02*
X11277857Y-6104318D01*
X11277857Y-6104318D02*
X11398809Y-6104318D01*
X11398809Y-6104318D02*
X11580238Y-6164794D01*
X11580238Y-6164794D02*
X11640714Y-6225270D01*
X12850238Y-7374318D02*
X12124523Y-7374318D01*
X12487380Y-7374318D02*
X12487380Y-6104318D01*
X12487380Y-6104318D02*
X12366428Y-6285746D01*
X12366428Y-6285746D02*
X12245476Y-6406699D01*
X12245476Y-6406699D02*
X12124523Y-6467175D01*
D10*
X833333Y-9479819D02*
X500000Y-9003628D01*
X261905Y-9479819D02*
X261905Y-8479819D01*
X261905Y-8479819D02*
X642857Y-8479819D01*
X642857Y-8479819D02*
X738095Y-8527438D01*
X738095Y-8527438D02*
X785714Y-8575057D01*
X785714Y-8575057D02*
X833333Y-8670295D01*
X833333Y-8670295D02*
X833333Y-8813152D01*
X833333Y-8813152D02*
X785714Y-8908390D01*
X785714Y-8908390D02*
X738095Y-8956009D01*
X738095Y-8956009D02*
X642857Y-9003628D01*
X642857Y-9003628D02*
X261905Y-9003628D01*
X1785714Y-9479819D02*
X1214286Y-9479819D01*
X1500000Y-9479819D02*
X1500000Y-8479819D01*
X1500000Y-8479819D02*
X1404762Y-8622676D01*
X1404762Y-8622676D02*
X1309524Y-8717914D01*
X1309524Y-8717914D02*
X1214286Y-8765533D01*
X16454819Y-1966666D02*
X15978628Y-2299999D01*
X16454819Y-2538094D02*
X15454819Y-2538094D01*
X15454819Y-2538094D02*
X15454819Y-2157142D01*
X15454819Y-2157142D02*
X15502438Y-2061904D01*
X15502438Y-2061904D02*
X15550057Y-2014285D01*
X15550057Y-2014285D02*
X15645295Y-1966666D01*
X15645295Y-1966666D02*
X15788152Y-1966666D01*
X15788152Y-1966666D02*
X15883390Y-2014285D01*
X15883390Y-2014285D02*
X15931009Y-2061904D01*
X15931009Y-2061904D02*
X15978628Y-2157142D01*
X15978628Y-2157142D02*
X15978628Y-2538094D01*
X15788152Y-1109523D02*
X16454819Y-1109523D01*
X15407200Y-1347618D02*
X16121485Y-1585713D01*
X16121485Y-1585713D02*
X16121485Y-966666D01*
D13*
%TO.C,R3*%
X8637258Y-7922500D02*
X8162742Y-7922500D01*
X8637258Y-6877500D02*
X8162742Y-6877500D01*
%TO.C,J3*%
X9500000Y-18500000D02*
X9500000Y-19500000D01*
X9500000Y-19500000D02*
X10000000Y-19000000D01*
X10000000Y-19000000D02*
X9500000Y-18500000D01*
X10380000Y-22860000D02*
X10380000Y-8140000D01*
X10380000Y-22860000D02*
X12360000Y-22860000D01*
X12360000Y-8140000D02*
X10380000Y-8140000D01*
X16060000Y-8140000D02*
X24600000Y-8140000D01*
X16060000Y-22860000D02*
X24600000Y-22860000D01*
X24600000Y-22860000D02*
X24600000Y-8140000D01*
%TO.C,R2*%
X8637258Y-9522500D02*
X8162742Y-9522500D01*
X8637258Y-8477500D02*
X8162742Y-8477500D01*
%TO.C,J2*%
X11440000Y-25290000D02*
X11440000Y-26540000D01*
X11740000Y-25590000D02*
X11740000Y-30310000D01*
X11740000Y-26900000D02*
X12350000Y-26900000D01*
X11740000Y-28200000D02*
X12350000Y-28200000D01*
X11740000Y-30310000D02*
X17860000Y-30310000D01*
X12350000Y-26200000D02*
X12350000Y-29700000D01*
X12350000Y-29700000D02*
X17250000Y-29700000D01*
X12690000Y-25290000D02*
X11440000Y-25290000D01*
X13200000Y-25390000D02*
X13200000Y-25590000D01*
X13500000Y-25390000D02*
X13200000Y-25390000D01*
X13500000Y-25490000D02*
X13200000Y-25490000D01*
X13500000Y-25590000D02*
X13500000Y-25390000D01*
X14300000Y-25590000D02*
X14300000Y-26200000D01*
X14300000Y-26200000D02*
X12350000Y-26200000D01*
X14700000Y-29200000D02*
X14900000Y-29200000D01*
X14700000Y-29700000D02*
X14700000Y-29200000D01*
X14800000Y-29700000D02*
X14800000Y-29200000D01*
X14900000Y-29200000D02*
X14900000Y-29700000D01*
X15300000Y-26200000D02*
X15300000Y-25590000D01*
X17250000Y-26200000D02*
X15300000Y-26200000D01*
X17250000Y-29700000D02*
X17250000Y-26200000D01*
X17860000Y-25590000D02*
X11740000Y-25590000D01*
X17860000Y-26900000D02*
X17250000Y-26900000D01*
X17860000Y-28200000D02*
X17250000Y-28200000D01*
X17860000Y-30310000D02*
X17860000Y-25590000D01*
%TO.C,C2*%
X16360000Y-4965580D02*
X16360000Y-4684420D01*
X15340000Y-4965580D02*
X15340000Y-4684420D01*
%TO.C,R5*%
X3737258Y-6877500D02*
X3262742Y-6877500D01*
X3737258Y-7922500D02*
X3262742Y-7922500D01*
%TO.C,C1*%
X16840000Y-4940580D02*
X16840000Y-4659420D01*
X17860000Y-4940580D02*
X17860000Y-4659420D01*
%TO.C,J1*%
X6200000Y-20200000D02*
X4200000Y-20200000D01*
X6200000Y-10800000D02*
X4200000Y-10800000D01*
X2300000Y-20200000D02*
X400000Y-20200000D01*
X2300000Y-10800000D02*
X400000Y-10800000D01*
X400000Y-10800000D02*
X400000Y-20200000D01*
D14*
%TO.C,IC1*%
X14550000Y-5880000D02*
X13050000Y-5880000D01*
X9500000Y-5750000D02*
X9500000Y-850000D01*
X12700000Y-5750000D02*
X9500000Y-5750000D01*
X9500000Y-850000D02*
X12700000Y-850000D01*
X12700000Y-850000D02*
X12700000Y-5750000D01*
D13*
%TO.C,R1*%
X3262742Y-8477500D02*
X3737258Y-8477500D01*
X3262742Y-9522500D02*
X3737258Y-9522500D01*
%TO.C,R4*%
X17872500Y-2037258D02*
X17872500Y-1562742D01*
X16827500Y-2037258D02*
X16827500Y-1562742D01*
%TD*%
%LPC*%
D15*
%TO.C,REF\u002A\u002A*%
X3500000Y-3500000D03*
%TD*%
%TO.C,REF\u002A\u002A*%
X3500000Y-27500000D03*
%TD*%
%TO.C,REF\u002A\u002A*%
X21500000Y-27500000D03*
%TD*%
%TO.C,REF\u002A\u002A*%
X21500000Y-3500000D03*
%TD*%
D16*
%TO.C,R3*%
X9225000Y-7400000D03*
X7575000Y-7400000D03*
%TD*%
D17*
%TO.C,J3*%
X11500000Y-19000000D03*
D18*
X11500000Y-16500000D03*
X11500000Y-14500000D03*
X11500000Y-12000000D03*
D19*
X14210000Y-22070000D03*
X14210000Y-8930000D03*
%TD*%
D16*
%TO.C,R2*%
X9225000Y-9000000D03*
X7575000Y-9000000D03*
%TD*%
D20*
%TO.C,J2*%
X13800000Y-27400000D03*
D21*
X15800000Y-27400000D03*
%TD*%
D22*
%TO.C,C2*%
X15850000Y-5600000D03*
X15850000Y-4050000D03*
%TD*%
D16*
%TO.C,R5*%
X2675000Y-7400000D03*
X4325000Y-7400000D03*
%TD*%
D22*
%TO.C,C1*%
X17350000Y-4025000D03*
X17350000Y-5575000D03*
%TD*%
D23*
%TO.C,J1*%
X3250000Y-19820000D03*
D24*
X7430000Y-19820000D03*
D23*
X3250000Y-11180000D03*
D24*
X7430000Y-11180000D03*
D25*
X8345000Y-12250000D03*
X8345000Y-13050000D03*
D26*
X8345000Y-13750000D03*
X8345000Y-14750000D03*
X8345000Y-16250000D03*
X8345000Y-17250000D03*
D25*
X8345000Y-17950000D03*
X8345000Y-18750000D03*
X8345000Y-18750000D03*
X8345000Y-17950000D03*
D26*
X8345000Y-16750000D03*
X8345000Y-15750000D03*
X8345000Y-15250000D03*
X8345000Y-14250000D03*
D25*
X8345000Y-13050000D03*
X8345000Y-12250000D03*
D27*
X6900000Y-18390000D03*
X6900000Y-12610000D03*
%TD*%
D28*
%TO.C,IC1*%
X8400000Y-5205000D03*
X8400000Y-3935000D03*
X8400000Y-2665000D03*
X8400000Y-1395000D03*
X13800000Y-1395000D03*
X13800000Y-2665000D03*
X13800000Y-3935000D03*
X13800000Y-5205000D03*
%TD*%
D29*
%TO.C,R1*%
X2675000Y-9000000D03*
X4325000Y-9000000D03*
%TD*%
D30*
%TO.C,R4*%
X17350000Y-2625000D03*
X17350000Y-975000D03*
%TD*%
%LPD*%
M02*
